#!OML:ASF I:\Actors\actors\Patient Classification 1\Patient 1\Session 1\Subject1.ASF
:FULLY-SPECIFIED
:DEGREES
2186
root -1.09537 17.4602 8.53146 2.65295 -7.17161 -10.8193
lowerback 8.37759 2.72612 7.0242
upperback -6.27204 4.89032 2.56504
thorax -11.1655 1.91807 -2.00738
lowerneck -7.52316 -1.5871 -0.12252
upperneck 11.1477 -3.44866 10.7068
head 4.78079 -1.0562 3.11722
rclavicle 5.36719e-014 2.14687e-014
rhumerus -51.5499 -9.9671 -70.089
rradius 42.5153
rwrist 33.6229
rhand 187.691 155.844
rfingers 7.12502
rthumb 32.9334 -1131.17
lclavicle 5.36719e-014 2.14687e-014
lhumerus -47.2393 34.2511 55.7477
lradius 21.1248
lwrist -44.0434
lhand -15.7987 10.6129
lfingers 7.12502
lthumb 10.3944 40.336
rfemur 5.60006 15.0449 37.1472
rtibia 5.08682
rfoot -13.2087 -23.1151
rtoes 17.1309
lfemur -22.9995 -1.77901 7.0561
ltibia 46.0242
lfoot 34.289 -5.02185
ltoes -17.3691
2187
root -1.10487 17.465 8.5306 2.58232 -6.76061 -10.5162
lowerback 8.40348 2.5993 6.9092
upperback -6.2616 4.69285 2.43507
thorax -11.1802 1.82574 -2.05311
lowerneck -7.55272 -1.56404 0.00298756
upperneck 11.113 -3.4017 10.481
head 4.76668 -1.04195 3.02847
rclavicle -1.73937e-015 -7.196e-014
rhumerus -51.782 -10.07 -69.67
rradius 42.3546
rwrist 33.6606
rhand 187.582 155.919
rfingers 7.12502
rthumb 32.8295 -1131.12
lclavicle -1.73937e-015 -7.196e-014
lhumerus -47.6474 34.82 55.2532
lradius 20.9656
lwrist -44.5313
lhand -15.7258 10.4973
lfingers 7.12502
lthumb 10.4647 40.2169
rfemur 5.65848 15.2298 36.9443
rtibia 5.044
rfoot -13.3431 -23.6506
rtoes 17.6381
lfemur -22.7812 -0.461935 7.38115
ltibia 45.1913
lfoot 34.7728 -6.04167
ltoes -16.6547
2188
root -1.11278 17.469 8.53099 2.54743 -6.34169 -10.2549
lowerback 8.40092 2.45935 6.86619
upperback -6.25483 4.48632 2.32118
thorax -11.18 1.72478 -2.11784
lowerneck -7.56263 -1.59232 -0.171493
upperneck 11.0021 -3.40595 10.4631
head 4.73621 -1.05655 3.05066
rclavicle -1.56543e-014 -2.82274e-014
rhumerus -52.03 -10.099 -69.2472
rradius 42.2557
rwrist 33.6391
rhand 187.526 156.025
rfingers 7.12502
rthumb 32.7758 -1131.02
lclavicle -1.56543e-014 -2.82274e-014
lhumerus -48.0436 35.4348 54.7514
lradius 20.7666
lwrist -45.0872
lhand -15.6188 10.2639
lfingers 7.12502
lthumb 10.5679 39.9782
rfemur 5.66959 15.3154 36.7444
rtibia 5.01977
rfoot -13.481 -24.1006
rtoes 17.9006
lfemur -22.5419 0.838203 7.71896
ltibia 44.3506
lfoot 35.2721 -6.89721
ltoes -15.998
2189
root -1.12098 17.4722 8.53225 2.52859 -5.90445 -10.0082
lowerback 8.39823 2.32718 6.8189
upperback -6.26641 4.29351 2.23116
thorax -11.2023 1.63073 -2.157
lowerneck -7.57951 -1.58869 -0.309605
upperneck 10.975 -3.37247 10.3889
head 4.72895 -1.05092 3.05226
rclavicle 1.64991e-014 3.18055e-015
rhumerus -52.3064 -10.1108 -68.7767
rradius 42.1589
rwrist 33.5544
rhand 187.513 155.946
rfingers 7.12502
rthumb 32.7637 -1131.1
lclavicle 1.64991e-014 3.18055e-015
lhumerus -48.4487 36.06 54.2877
lradius 20.5723
lwrist -45.8148
lhand -15.4964 10.2143
lfingers 7.12502
lthumb 10.686 39.9226
rfemur 5.65813 15.3515 36.5471
rtibia 5.00016
rfoot -13.6038 -24.492
rtoes 18.1539
lfemur -22.2995 2.05259 8.0462
ltibia 43.5664
lfoot 35.663 -7.56598
ltoes -15.2659
2190
root -1.13173 17.4755 8.53511 2.46995 -5.5363 -9.7812
lowerback 8.40463 2.23124 6.75386
upperback -6.26425 4.14702 2.14163
thorax -11.212 1.56101 -2.19365
lowerneck -7.58398 -1.57695 -0.335999
upperneck 10.9839 -3.33962 10.2733
head 4.72861 -1.04231 3.0227
rclavicle -2.12203e-014 -3.97569e-014
rhumerus -52.6155 -10.1954 -68.2862
rradius 42.0004
rwrist 33.519
rhand 187.429 155.871
rfingers 7.12502
rthumb 32.6843 -1131.19
lclavicle -2.12203e-014 -3.97569e-014
lhumerus -48.6232 36.306 54.1789
lradius 20.4045
lwrist -46.1121
lhand -15.4291 10.3541
lfingers 7.12502
lthumb 10.7509 40.0589
rfemur 5.73317 15.4686 36.4139
rtibia 4.94265
rfoot -13.7194 -24.9125
rtoes 18.5481
lfemur -21.8502 3.12419 8.42514
ltibia 42.6739
lfoot 35.9119 -8.24266
ltoes -14.6952
2191
root -1.14285 17.4795 8.5396 2.41364 -5.18787 -9.61875
lowerback 8.37415 2.13148 6.72847
upperback -6.25723 3.99771 2.0612
thorax -11.1929 1.48854 -2.2399
lowerneck -7.64959 -1.56097 -0.265267
upperneck 11.0781 -3.32499 10.1746
head 4.76522 -1.03263 2.98148
rclavicle -1.92324e-014 -7.15625e-015
rhumerus -52.9677 -10.3419 -67.8142
rradius 41.903
rwrist 33.4862
rhand 187.437 155.653
rfingers 7.12502
rthumb 32.6918 -1131.41
lclavicle -1.92324e-014 -7.15625e-015
lhumerus -48.7429 36.4055 54.1775
lradius 20.323
lwrist -46.1357
lhand -15.3824 10.4058
lfingers 7.12502
lthumb 10.7959 40.1084
rfemur 5.83114 15.6063 36.3679
rtibia 4.87563
rfoot -13.8552 -25.3706
rtoes 18.955
lfemur -21.263 3.99919 8.90444
ltibia 41.618
lfoot 36.1489 -8.98425
ltoes -14.0561
